<?xml version="1.0" encoding="UTF-8"?>
<!DOCTYPE svg PUBLIC "-//W3C//DTD SVG 1.1//EN" "http://www.w3.org/Graphics/SVG/1.1/DTD/svg11.dtd">
<svg xmlns="http://www.w3.org/2000/svg" version="1.1" width="64px" height="64px" style="shape-rendering:geometricPrecision; text-rendering:geometricPrecision; image-rendering:optimizeQuality; fill-rule:evenodd; clip-rule:evenodd" xmlns:xlink="http://www.w3.org/1999/xlink">
<g><path style="opacity:0.953" fill="#c7d6d0" d="M 52.5,12.5 C 52.56,13.0431 52.8933,13.3764 53.5,13.5C 54.4287,12.3112 54.762,10.9778 54.5,9.5C 54.5,8.83333 54.5,8.16667 54.5,7.5C 56.1628,9.4385 56.8294,11.7718 56.5,14.5C 56.5,16.5 55.5,17.5 53.5,17.5C 52.8333,17.1667 52.1667,16.8333 51.5,16.5C 51.5,15.8333 51.1667,15.5 50.5,15.5C 50.5,15.1667 50.5,14.8333 50.5,14.5C 50.5,13.8333 50.1667,13.5 49.5,13.5C 49.5,13.1667 49.5,12.8333 49.5,12.5C 49.44,11.9569 49.1067,11.6236 48.5,11.5C 47.9432,13.3316 46.9432,14.6649 45.5,15.5C 42.8945,12.7899 42.8945,9.95658 45.5,7C 49.079,7.06309 51.4123,8.89643 52.5,12.5 Z"/></g>
<g><path style="opacity:0.012" fill="#fefffe" d="M 57.5,7.5 C 58.8333,8.16667 58.8333,8.16667 57.5,7.5 Z"/></g>
<g><path style="opacity:0.014" fill="#fefffe" d="M 58.5,9.5 C 59.5983,10.6009 59.765,11.9343 59,13.5C 58.51,12.2068 58.3433,10.8734 58.5,9.5 Z"/></g>
<g><path style="opacity:0.549" fill="#dde6e1" d="M 54.5,7.5 C 54.56,6.95691 54.8933,6.62358 55.5,6.5C 56.1818,7.24269 56.8485,7.90935 57.5,8.5C 57.7947,10.7354 57.4614,12.7354 56.5,14.5C 56.8294,11.7718 56.1628,9.4385 54.5,7.5 Z"/></g>
<g><path style="opacity:0.224" fill="#e5f5ec" d="M 54.5,9.5 C 54.762,10.9778 54.4287,12.3112 53.5,13.5C 52.8933,13.3764 52.56,13.0431 52.5,12.5C 53.1667,11.5 53.8333,10.5 54.5,9.5 Z"/></g>
<g><path style="opacity:0.047" fill="#e6f5f0" d="M 49.5,12.5 C 48.1667,12.8333 48.1667,13.1667 49.5,13.5C 50.1667,13.5 50.5,13.8333 50.5,14.5C 50.1667,14.5 49.8333,14.5 49.5,14.5C 48.8333,15.5 48.1667,16.5 47.5,17.5C 46.8333,16.8333 46.1667,16.1667 45.5,15.5C 46.9432,14.6649 47.9432,13.3316 48.5,11.5C 49.1067,11.6236 49.44,11.9569 49.5,12.5 Z"/></g>
<g><path style="opacity:0.01" fill="#fcfdfd" d="M 51.5,16.5 C 52.1667,16.8333 52.8333,17.1667 53.5,17.5C 53.1667,18.5 52.5,19.1667 51.5,19.5C 51.5,18.5 51.5,17.5 51.5,16.5 Z"/></g>
<g><path style="opacity:0.97" fill="#c8d9d3" d="M 23.5,13.5 C 26.6399,12.3592 29.9733,12.1925 33.5,13C 37.6667,15.1667 41.8333,17.3333 46,19.5C 46.2784,18.5842 46.7784,17.9175 47.5,17.5C 48.1667,16.5 48.8333,15.5 49.5,14.5C 49.5,15.1667 49.8333,15.5 50.5,15.5C 50.2322,17.099 50.5655,18.4324 51.5,19.5C 51.81,22.7131 51.4767,25.7131 50.5,28.5C 51.2386,21.7391 48.2386,18.9057 41.5,20C 42.4505,23.0567 42.7839,26.2234 42.5,29.5C 41.8333,29.8333 41.1667,30.1667 40.5,30.5C 41.3235,28.5454 41.4901,26.5454 41,24.5C 39.6667,22.5 38.3333,20.5 37,18.5C 35.7308,19.9047 35.2308,21.5714 35.5,23.5C 34.1779,23.67 33.0113,23.3366 32,22.5C 31.2917,23.3805 30.4584,24.0472 29.5,24.5C 29.5,23.5 29.5,22.5 29.5,21.5C 28.1667,21.5 26.8333,21.5 25.5,21.5C 25.5,22.5 25.5,23.5 25.5,24.5C 24.325,24.719 23.325,24.3857 22.5,23.5C 22.6236,22.8933 22.9569,22.56 23.5,22.5C 23.9081,21.3569 24.5748,20.3569 25.5,19.5C 27.8057,19.6457 30.139,19.979 32.5,20.5C 33.2436,19.0095 33.9103,17.5095 34.5,16C 31.1295,13.9222 27.4629,13.0889 23.5,13.5 Z"/></g>
<g><path style="opacity:0.998" fill="#bbd1c9" d="M 50.5,28.5 C 50.7373,29.791 50.404,30.791 49.5,31.5C 48.8333,31.8333 48.1667,32.1667 47.5,32.5C 47.3527,29.4612 47.3527,26.4612 47.5,23.5C 46.675,22.6143 45.675,22.281 44.5,22.5C 43.8727,25.089 43.8727,27.589 44.5,30C 44.3333,30.5 44.1667,31 44,31.5C 43.7216,30.5842 43.2216,29.9175 42.5,29.5C 42.7839,26.2234 42.4505,23.0567 41.5,20C 48.2386,18.9057 51.2386,21.7391 50.5,28.5 Z"/></g>
<g><path style="opacity:1" fill="#b7d2c7" d="M 23.5,13.5 C 27.4629,13.0889 31.1295,13.9222 34.5,16C 33.9103,17.5095 33.2436,19.0095 32.5,20.5C 30.139,19.979 27.8057,19.6457 25.5,19.5C 24.5748,20.3569 23.9081,21.3569 23.5,22.5C 22.9569,22.56 22.6236,22.8933 22.5,23.5C 23.325,24.3857 24.325,24.719 25.5,24.5C 25.5,23.5 25.5,22.5 25.5,21.5C 26.8333,21.5 28.1667,21.5 29.5,21.5C 29.5,22.5 29.5,23.5 29.5,24.5C 28.7611,24.369 28.0944,24.5357 27.5,25C 28.8333,26.3333 28.8333,27.6667 27.5,29C 30.3208,31.1413 31.6541,33.9746 31.5,37.5C 33.7925,37.2436 35.9592,37.5769 38,38.5C 38.2904,36.0796 38.7904,33.7463 39.5,31.5C 40.1667,31.5 40.5,31.1667 40.5,30.5C 41.1667,30.1667 41.8333,29.8333 42.5,29.5C 43.2216,29.9175 43.7216,30.5842 44,31.5C 44.1667,31 44.3333,30.5 44.5,30C 43.8727,27.589 43.8727,25.089 44.5,22.5C 45.675,22.281 46.675,22.6143 47.5,23.5C 47.3527,26.4612 47.3527,29.4612 47.5,32.5C 47.5,36.1667 47.5,39.8333 47.5,43.5C 47.6716,44.4916 47.3382,45.1583 46.5,45.5C 45.8826,45.3893 45.3826,45.056 45,44.5C 41.4264,50.3886 36.0931,53.7219 29,54.5C 26.6003,53.9559 24.267,53.2892 22,52.5C 19.9592,53.4231 17.7925,53.7564 15.5,53.5C 15.8432,51.5168 15.1765,50.1834 13.5,49.5C 13.5,49.1667 13.5,48.8333 13.5,48.5C 14.1667,48.5 14.5,48.1667 14.5,47.5C 15.3382,47.1583 15.6716,46.4916 15.5,45.5C 16.1667,42.1668 14.8333,40.1668 11.5,39.5C 9.95873,37.796 8.6254,35.9626 7.5,34C 9.27516,27.6255 11.9418,21.7922 15.5,16.5C 17.9535,14.9402 20.6202,13.9402 23.5,13.5 Z"/></g>
<g><path style="opacity:0.055" fill="#f0fdfb" d="M 40.5,30.5 C 40.5,31.1667 40.1667,31.5 39.5,31.5C 38.8333,31.5 38.5,31.1667 38.5,30.5C 38.9377,29.4937 39.6043,29.4937 40.5,30.5 Z"/></g>
<g><path style="opacity:1" fill="#c2d5cd" d="M 29.5,24.5 C 29.6355,28.4383 31.1355,31.7717 34,34.5C 34.7393,32.7795 35.5726,31.1128 36.5,29.5C 37.1835,29.8627 37.8501,30.1961 38.5,30.5C 38.5,31.1667 38.8333,31.5 39.5,31.5C 38.7904,33.7463 38.2904,36.0796 38,38.5C 35.9592,37.5769 33.7925,37.2436 31.5,37.5C 31.6541,33.9746 30.3208,31.1413 27.5,29C 28.8333,27.6667 28.8333,26.3333 27.5,25C 28.0944,24.5357 28.7611,24.369 29.5,24.5 Z"/></g>
<g><path style="opacity:0.984" fill="#c2d4cc" d="M 15.5,16.5 C 11.9418,21.7922 9.27516,27.6255 7.5,34C 8.6254,35.9626 9.95873,37.796 11.5,39.5C 14.8333,40.1668 16.1667,42.1668 15.5,45.5C 15.1667,45.5 14.8333,45.5 14.5,45.5C 14.1667,44.5 13.5,43.8333 12.5,43.5C 10.502,41.4002 8.3353,39.4002 6,37.5C 4.3596,28.312 7.52627,21.312 15.5,16.5 Z"/></g>
<g><path style="opacity:0.583" fill="#d2e0db" d="M 49.5,31.5 C 48.2799,33.6633 48.2799,35.83 49.5,38C 49.0463,40.0299 48.3796,41.8632 47.5,43.5C 47.5,39.8333 47.5,36.1667 47.5,32.5C 48.1667,32.1667 48.8333,31.8333 49.5,31.5 Z"/></g>
<g><path style="opacity:0.676" fill="#d2e3dd" d="M 12.5,43.5 C 13.5,43.8333 14.1667,44.5 14.5,45.5C 14.8333,45.5 15.1667,45.5 15.5,45.5C 15.6716,46.4916 15.3382,47.1583 14.5,47.5C 13.8333,47.5 13.5,47.8333 13.5,48.5C 12.8333,48.5 12.1667,48.5 11.5,48.5C 11.5,47.5 11.5,46.5 11.5,45.5C 10.5,45.5 9.5,45.5 8.5,45.5C 9.83333,44.8333 11.1667,44.1667 12.5,43.5 Z"/></g>
<g><path style="opacity:0.727" fill="#c6d4ce" d="M 8.5,45.5 C 9.5,45.5 10.5,45.5 11.5,45.5C 11.5,46.5 11.5,47.5 11.5,48.5C 11.1667,48.5 10.8333,48.5 10.5,48.5C 10.1667,48.5 9.83333,48.5 9.5,48.5C 8.83333,48.1667 8.16667,47.8333 7.5,47.5C 6.24258,46.3774 6.57591,45.7107 8.5,45.5 Z"/></g>
<g><path style="opacity:0.004" fill="#fbfdfd" d="M 7.5,47.5 C 8.16667,47.8333 8.83333,48.1667 9.5,48.5C 8.74943,49.5735 7.74943,49.7401 6.5,49C 7.05596,48.6174 7.38929,48.1174 7.5,47.5 Z"/></g>
<g><path style="opacity:0.02" fill="#f5fcfa" d="M 10.5,48.5 C 10.8333,48.5 11.1667,48.5 11.5,48.5C 12.1667,48.5 12.8333,48.5 13.5,48.5C 13.5,48.8333 13.5,49.1667 13.5,49.5C 12.8333,49.8333 12.1667,50.1667 11.5,50.5C 11.1667,49.8333 10.8333,49.1667 10.5,48.5 Z"/></g>
<g><path style="opacity:0.993" fill="#c2d5ce" d="M 46.5,45.5 C 43.7825,50.8759 39.4492,54.3759 33.5,56C 25.9831,57.0726 18.6497,56.4059 11.5,54C 10.2089,52.7083 10.2089,51.5417 11.5,50.5C 12.1667,50.1667 12.8333,49.8333 13.5,49.5C 15.1765,50.1834 15.8432,51.5168 15.5,53.5C 17.7925,53.7564 19.9592,53.4231 22,52.5C 24.267,53.2892 26.6003,53.9559 29,54.5C 36.0931,53.7219 41.4264,50.3886 45,44.5C 45.3826,45.056 45.8826,45.3893 46.5,45.5 Z"/></g>
</svg>
