<?xml version="1.0" standalone="no"?>
<!DOCTYPE svg PUBLIC "-//W3C//DTD SVG 20010904//EN"
 "http://www.w3.org/TR/2001/REC-SVG-20010904/DTD/svg10.dtd">
<svg version="1.0" xmlns="http://www.w3.org/2000/svg"
 width="1243.000000pt" height="784.000000pt" viewBox="0 0 1243.000000 784.000000"
 preserveAspectRatio="xMidYMid meet">

<g transform="translate(0.000000,784.000000) scale(0.100000,-0.100000)"
fill="#000000" stroke="none">
<path d="M8258 6829 c-21 -12 -24 -69 -6 -87 17 -17 53 -15 68 3 8 9 9 15 2
15 -6 0 -14 -4 -17 -10 -11 -18 -35 -10 -47 15 -8 19 -8 28 2 40 15 18 47 20
53 3 2 -7 8 -9 13 -5 5 5 1 15 -10 23 -23 16 -35 17 -58 3z"/>
<path d="M8568 6819 c-8 -25 5 -89 18 -89 12 0 12 4 2 20 -10 15 -10 25 -2 38
8 13 8 20 -2 29 -8 8 -14 9 -16 2z"/>
<path d="M8351 6765 c2 -33 3 -35 6 -10 2 17 11 35 20 42 13 10 13 12 -6 10
-18 -1 -21 -7 -20 -42z"/>
<path d="M8400 6790 c-15 -28 4 -60 35 -60 14 0 25 5 25 11 0 6 -8 8 -19 4
-11 -3 -22 -1 -26 5 -4 6 4 10 19 10 30 0 42 16 26 35 -18 21 -47 18 -60 -5z
m45 0 c3 -5 -3 -10 -15 -10 -12 0 -18 5 -15 10 3 6 10 10 15 10 5 0 12 -4 15
-10z"/>
<path d="M8484 6799 c-4 -7 0 -9 14 -5 11 4 23 3 26 -3 3 -5 -5 -12 -19 -15
-16 -4 -25 -13 -25 -26 0 -16 7 -20 35 -20 30 0 35 3 35 24 0 13 -3 31 -6 40
-7 18 -49 22 -60 5z m46 -38 c0 -14 -18 -23 -31 -15 -8 4 -7 9 2 15 18 11 29
11 29 0z"/>
<path d="M8621 6796 c-21 -25 -6 -66 24 -66 13 0 27 5 31 11 4 7 0 9 -14 5
-11 -4 -23 -2 -27 4 -4 6 4 10 20 10 22 0 26 4 23 23 -4 27 -39 35 -57 13z
m44 -6 c3 -5 -3 -10 -15 -10 -12 0 -18 5 -15 10 3 6 10 10 15 10 5 0 12 -4 15
-10z"/>
<path d="M8707 6803 c-13 -13 -7 -32 13 -38 11 -3 20 -11 20 -16 0 -6 -9 -7
-20 -4 -12 4 -20 2 -20 -5 0 -6 12 -10 27 -8 34 4 43 33 14 43 -12 3 -21 11
-21 16 0 6 9 7 21 4 15 -5 19 -4 15 4 -8 12 -39 15 -49 4z"/>
<path d="M8814 6799 c-4 -7 0 -9 14 -5 11 4 23 3 26 -3 3 -5 -5 -12 -19 -15
-16 -4 -25 -13 -25 -26 0 -16 7 -20 35 -20 30 0 35 3 35 24 0 13 -3 31 -6 40
-7 18 -49 22 -60 5z m38 -51 c-6 -6 -15 -8 -19 -4 -4 4 -1 11 7 16 19 12 27 3
12 -12z"/>
<path d="M8260 6610 c0 -5 5 -10 11 -10 5 0 7 5 4 10 -3 6 -8 10 -11 10 -2 0
-4 -4 -4 -10z"/>
<path d="M8590 6566 c0 -31 5 -56 10 -56 6 0 10 14 10 30 0 20 5 30 15 30 10
0 15 -10 15 -30 0 -16 5 -30 10 -30 6 0 10 13 10 29 0 31 -22 57 -40 46 -5 -3
-10 1 -10 9 0 8 -4 18 -10 21 -6 4 -10 -15 -10 -49z"/>
<path d="M8837 6614 c-11 -11 -9 -104 3 -104 6 0 10 14 10 31 0 41 32 36 42
-6 6 -26 6 -25 5 10 -2 33 -6 40 -22 40 -11 0 -22 8 -25 18 -3 10 -8 15 -13
11z"/>
<path d="M9050 6599 c0 -11 -5 -17 -10 -14 -22 14 -50 -6 -50 -35 0 -32 22
-50 51 -43 16 4 19 15 19 59 0 30 -2 54 -5 54 -3 0 -5 -9 -5 -21z m-6 -38 c9
-14 -4 -41 -19 -41 -15 0 -28 27 -19 41 3 5 11 9 19 9 8 0 16 -4 19 -9z"/>
<path d="M8091 6553 c-1 -44 8 -52 46 -45 18 3 23 11 23 38 0 44 -18 53 -22
12 -4 -45 -31 -44 -39 2 l-6 35 -2 -42z"/>
<path d="M8175 6582 c-9 -10 -5 -72 5 -72 6 0 10 14 10 31 0 41 32 36 42 -6 6
-26 6 -25 5 10 -2 36 -5 40 -29 41 -15 1 -30 -1 -33 -4z"/>
<path d="M8260 6550 c0 -22 5 -40 10 -40 6 0 10 18 10 40 0 22 -4 40 -10 40
-5 0 -10 -18 -10 -40z"/>
<path d="M8302 6578 c-29 -29 -1 -84 36 -71 6 3 12 -2 12 -11 0 -9 5 -16 11
-16 6 0 9 20 7 52 -3 47 -5 52 -28 55 -14 2 -31 -2 -38 -9z m43 -33 c0 -11 -8
-21 -17 -23 -14 -3 -18 3 -18 23 0 20 4 26 18 23 9 -2 17 -12 17 -23z"/>
<path d="M8382 6553 c3 -35 6 -38 36 -41 31 -3 32 -3 32 38 0 25 -4 39 -10 35
-5 -3 -10 -19 -10 -36 0 -19 -5 -29 -15 -29 -10 0 -15 11 -15 35 0 19 -5 35
-11 35 -6 0 -9 -16 -7 -37z"/>
<path d="M8473 6573 c-3 -10 -8 -21 -10 -25 -7 -13 36 -48 52 -42 22 9 19 23
-4 17 -10 -3 -22 0 -25 6 -5 7 4 11 23 11 32 0 41 16 19 38 -18 18 -48 15 -55
-5z m47 -13 c0 -5 -9 -10 -20 -10 -11 0 -20 5 -20 10 0 6 9 10 20 10 11 0 20
-4 20 -10z"/>
<path d="M8684 6578 c-5 -8 -2 -9 9 -5 9 3 19 2 22 -3 4 -6 -5 -14 -19 -20
-42 -16 -25 -51 20 -42 20 3 24 10 24 37 0 40 -38 62 -56 33z m36 -48 c0 -5
-7 -10 -15 -10 -8 0 -15 5 -15 10 0 6 7 10 15 10 8 0 15 -4 15 -10z"/>
<path d="M8764 6575 c-7 -18 3 -35 22 -35 8 0 14 -5 14 -11 0 -6 -9 -9 -20 -6
-22 6 -28 -8 -7 -16 15 -5 47 10 47 24 0 5 -12 14 -26 19 -30 12 -24 30 9 23
18 -4 19 -3 7 6 -21 15 -40 14 -46 -4z"/>
<path d="M8963 6550 c0 -25 2 -35 4 -22 2 12 2 32 0 45 -2 12 -4 2 -4 -23z"/>
<path d="M10040 4885 c-10 -12 -10 -18 0 -30 7 -8 18 -15 26 -15 18 0 28 -20
16 -32 -8 -8 -16 -7 -27 2 -8 7 -18 11 -20 8 -12 -12 26 -30 50 -24 36 9 33
44 -5 57 -16 6 -30 15 -30 19 0 16 21 23 33 11 17 -17 31 -13 17 4 -7 8 -20
15 -30 15 -10 0 -23 -7 -30 -15z"/>
<path d="M10128 4878 c-6 -21 6 -81 18 -85 6 -2 8 10 6 32 -3 23 0 35 8 35 7
0 6 5 -4 15 -18 18 -23 19 -28 3z"/>
<path d="M10180 4850 c-23 -42 30 -81 60 -45 7 8 10 25 6 40 -8 31 -50 35 -66
5z m45 -20 c0 -13 -6 -25 -12 -27 -16 -6 -27 21 -19 43 9 23 31 11 31 -16z"/>
<path d="M10260 4836 c0 -19 5 -38 10 -41 6 -4 10 6 10 24 0 18 7 34 18 40 14
9 13 10 -10 11 -25 0 -28 -3 -28 -34z"/>
<path d="M10322 4858 c-25 -25 -6 -68 29 -68 10 0 21 4 24 10 4 6 -3 9 -16 7
-12 -1 -24 4 -26 11 -3 8 6 12 27 12 28 0 30 2 20 20 -12 22 -40 26 -58 8z
m43 -8 c3 -5 -3 -10 -15 -10 -12 0 -18 5 -15 10 3 6 10 10 15 10 5 0 12 -4 15
-10z"/>
<path d="M10407 4863 c-15 -14 -6 -31 18 -37 14 -4 23 -11 20 -17 -4 -5 -16
-7 -28 -3 -17 5 -19 3 -11 -6 16 -17 48 -9 52 13 3 12 -4 20 -17 24 -12 3 -21
10 -21 15 0 5 10 6 21 3 15 -5 19 -4 15 4 -8 12 -39 15 -49 4z"/>
<path d="M10510 4830 c0 -22 5 -40 10 -40 6 0 10 18 10 40 0 22 -4 40 -10 40
-5 0 -10 -18 -10 -40z"/>
<path d="M10551 4825 l2 -40 6 35 c8 46 35 48 39 3 4 -40 22 -44 22 -5 0 39
-12 52 -43 50 -25 -2 -27 -6 -26 -43z"/>
<path d="M10030 4625 c0 -54 1 -55 28 -55 35 0 52 16 52 51 0 34 -24 59 -56
59 -22 0 -24 -3 -24 -55z m64 13 c14 -23 -3 -53 -30 -53 -15 0 -20 9 -22 38
-3 35 -1 38 19 35 12 -2 27 -11 33 -20z"/>
<path d="M10351 4629 l-1 -56 33 1 c25 1 33 6 35 24 4 29 -16 55 -39 49 -12
-3 -19 2 -22 17 -2 11 -5 -4 -6 -35z m47 -22 c2 -19 -1 -27 -12 -27 -20 0 -29
16 -21 41 9 27 29 19 33 -14z"/>
<path d="M10212 4654 c-7 -8 -8 -15 -2 -19 6 -3 10 -19 10 -36 0 -21 5 -29 17
-29 13 0 14 3 5 12 -14 14 -16 55 -3 60 5 2 4 8 -3 14 -8 8 -15 7 -24 -2z"/>
<path d="M10135 4640 c-5 -9 -1 -10 13 -6 11 4 23 3 26 -3 3 -5 -5 -12 -19
-15 -16 -4 -25 -13 -25 -26 0 -16 7 -20 31 -20 29 0 30 2 27 38 -2 29 -8 38
-25 40 -11 2 -24 -2 -28 -8z m40 -50 c-3 -5 -13 -10 -21 -10 -8 0 -14 5 -14
10 0 6 9 10 21 10 11 0 17 -4 14 -10z"/>
<path d="M10274 4639 c-4 -8 0 -9 15 -4 12 4 21 2 21 -4 0 -6 -11 -13 -26 -17
-36 -9 -27 -38 14 -42 28 -3 32 0 32 22 0 13 -3 31 -6 40 -7 18 -39 21 -50 5z
m36 -44 c0 -8 -7 -15 -15 -15 -26 0 -18 20 13 29 1 1 2 -6 2 -14z"/>
<path d="M10445 4640 c-5 -9 -1 -10 14 -5 30 9 26 -9 -5 -24 -33 -15 -26 -35
15 -39 32 -3 32 -3 29 35 -2 30 -7 39 -25 41 -11 2 -24 -2 -28 -8z m35 -45 c0
-8 -7 -15 -15 -15 -26 0 -18 20 13 29 1 1 2 -6 2 -14z"/>
<path d="M10524 4635 c-7 -18 3 -35 22 -35 8 0 14 -5 14 -11 0 -6 -9 -9 -20
-6 -11 3 -20 1 -20 -5 0 -14 53 -5 58 9 2 7 -8 18 -22 24 -29 14 -24 33 6 23
14 -4 18 -2 14 5 -10 16 -46 14 -52 -4z"/>
<path d="M10601 4636 c-21 -25 -6 -66 24 -66 13 0 27 5 30 10 4 7 -2 9 -19 4
-16 -4 -26 -2 -26 5 0 6 12 11 26 11 21 0 25 4 22 23 -4 27 -39 35 -57 13z
m44 -6 c3 -5 -3 -10 -15 -10 -12 0 -18 5 -15 10 3 6 10 10 15 10 5 0 12 -4 15
-10z"/>
<path d="M3710 4540 c-139 -5 -116 -6 140 -8 283 -2 307 -4 337 -22 69 -42 67
-27 73 -612 5 -513 6 -527 26 -555 44 -60 60 -63 378 -63 l290 0 -29 -30 c-16
-16 -24 -30 -19 -30 13 0 64 53 64 66 0 12 -53 64 -65 64 -5 0 4 -13 20 -30
l29 -30 -285 0 c-317 0 -332 3 -376 69 l-23 34 0 511 c0 511 0 512 -22 556
-35 68 -59 77 -228 81 -80 2 -219 2 -310 -1z"/>
<path d="M9592 2587 c-583 -365 -642 -404 -640 -426 3 -20 106 -89 638 -423
474 -297 641 -397 660 -395 25 3 1248 763 1284 797 10 10 16 25 13 32 -5 15
-1272 812 -1296 815 -9 2 -305 -178 -659 -400z m1027 -268 c-12 -8 -12 -10 0
-18 9 -6 10 -11 2 -15 -6 -4 -11 -20 -11 -37 0 -16 -4 -29 -10 -29 -5 0 -10
13 -10 28 0 15 -5 33 -12 40 -9 9 -9 12 0 12 7 0 12 6 12 14 0 16 20 26 34 18
4 -2 2 -8 -5 -13z m-845 5 c17 -7 22 -34 6 -34 -5 0 -10 5 -10 11 0 6 -10 9
-22 7 -18 -2 -23 -10 -23 -33 0 -23 5 -31 23 -33 12 -2 22 1 22 7 0 6 -4 11
-10 11 -5 0 -10 5 -10 11 0 7 12 10 30 7 19 -3 31 0 35 9 3 9 16 13 32 11 24
-3 28 -8 29 -36 1 -45 -25 -59 -59 -32 -19 16 -26 17 -30 6 -8 -20 -43 -25
-66 -9 -14 9 -21 25 -21 47 0 48 28 68 74 50z m281 -51 c1 -56 -7 -66 -25 -33
-6 11 -15 20 -20 20 -6 0 -10 -9 -10 -20 0 -11 -4 -20 -10 -20 -5 0 -10 25
-10 56 l0 55 38 -3 37 -3 0 -52z m-131 35 c10 -10 11 -17 2 -30 -8 -13 -8 -23
2 -38 11 -18 10 -20 -8 -20 -15 0 -20 7 -20 29 0 17 -4 33 -10 36 -6 4 -5 11
3 20 15 18 15 18 31 3z m600 0 c10 -10 11 -17 2 -30 -8 -13 -8 -23 2 -38 11
-17 10 -20 -7 -20 -14 0 -20 9 -23 38 -5 35 -1 62 8 62 3 0 11 -6 18 -12z
m-386 -20 c9 -9 15 -9 24 0 7 7 25 12 40 12 27 0 28 -1 28 -55 0 -30 -4 -55
-10 -55 -5 0 -10 7 -10 16 0 8 -5 12 -11 9 -6 -4 -21 3 -35 16 -19 18 -24 19
-24 7 0 -21 -27 -30 -51 -18 -19 11 -24 35 -13 64 7 19 45 21 62 4z m132 -19
c0 -38 24 -35 28 4 5 42 22 32 22 -13 0 -39 -1 -40 -35 -40 -34 0 -35 1 -35
40 0 22 5 40 10 40 6 0 10 -14 10 -31z m129 19 c11 -10 14 -10 18 0 6 15 49
16 59 0 5 -8 0 -9 -14 -6 -12 4 -22 3 -22 -2 0 -4 9 -10 20 -13 26 -7 26 -43
0 -50 -10 -3 -27 2 -37 10 -17 14 -17 14 4 10 32 -7 36 6 7 20 -13 6 -24 7
-24 2 0 -5 -15 -9 -32 -9 -23 0 -29 -3 -19 -9 8 -5 20 -7 28 -4 7 3 13 1 13
-5 0 -16 -30 -23 -51 -12 -19 10 -27 59 -12 73 11 11 48 8 62 -5z m299 0 c31
-31 -11 -88 -50 -67 -18 9 -26 58 -11 72 11 11 48 8 61 -5z m60 -2 c-10 -7
-18 -25 -18 -40 0 -14 -4 -26 -10 -26 -5 0 -10 18 -10 40 0 37 2 40 28 40 24
-1 25 -2 10 -14z m-828 -201 c0 -20 5 -25 25 -25 20 0 25 5 25 25 0 14 5 25
10 25 6 0 10 -27 10 -60 0 -33 -4 -60 -10 -60 -5 0 -10 11 -10 25 0 20 -5 25
-25 25 -20 0 -25 -5 -25 -25 0 -14 -4 -25 -10 -25 -6 0 -10 27 -10 60 0 33 4
60 10 60 6 0 10 -11 10 -25z m270 11 c0 -8 10 -16 23 -18 18 -2 23 -10 25 -45
2 -26 -1 -43 -7 -43 -6 0 -11 16 -11 35 0 24 -5 35 -15 35 -10 0 -15 -11 -15
-35 0 -19 -4 -35 -10 -35 -6 0 -10 27 -10 60 0 33 4 60 10 60 6 0 10 -6 10
-14z m170 4 c0 -6 -7 -10 -16 -8 -13 2 -18 -7 -21 -42 -5 -57 -23 -78 -23 -28
0 20 -6 39 -12 42 -10 5 -10 7 0 12 6 3 12 12 12 20 0 9 11 14 30 14 17 0 30
-5 30 -10z m40 -50 c0 -33 -4 -60 -10 -60 -6 0 -10 27 -10 60 0 33 4 60 10 60
6 0 10 -27 10 -60z m170 2 c0 -59 0 -59 -30 -60 -20 0 -35 6 -43 19 -13 20
-67 27 -67 8 0 -7 10 -9 26 -5 19 5 25 3 22 -6 -6 -18 -49 -16 -61 3 -5 9 -7
28 -3 42 5 20 13 27 31 27 13 0 28 -7 33 -16 8 -14 10 -14 21 0 8 9 22 16 32
16 11 0 19 7 19 15 0 8 5 15 10 15 6 0 10 -26 10 -58z m-492 -18 c3 -39 2 -42
-25 -42 -29 0 -53 14 -53 30 0 5 15 16 33 24 29 14 30 15 5 9 -16 -3 -28 -2
-28 3 0 16 14 23 40 20 22 -3 25 -8 28 -44z m69 29 c3 -7 -4 -10 -19 -7 -21 5
-20 3 5 -11 31 -18 33 -27 12 -45 -15 -13 -55 -5 -55 11 0 6 9 7 20 4 11 -4
20 -2 20 4 0 6 -6 11 -14 11 -19 0 -29 17 -22 36 7 18 47 15 53 -3z m213 -28
c0 -25 -4 -45 -10 -45 -5 0 -10 20 -10 45 0 25 5 45 10 45 6 0 10 -20 10 -45z"/>
<path d="M9838 2273 c7 -3 16 -2 19 1 4 3 -2 6 -13 5 -11 0 -14 -3 -6 -6z"/>
<path d="M9835 2240 c4 -6 11 -8 16 -5 14 9 11 15 -7 15 -8 0 -12 -5 -9 -10z"/>
<path d="M10000 2295 c0 -8 9 -15 20 -15 11 0 20 7 20 15 0 8 -9 15 -20 15
-11 0 -20 -7 -20 -15z"/>
<path d="M10098 2273 c7 -3 16 -2 19 1 4 3 -2 6 -13 5 -11 0 -14 -3 -6 -6z"/>
<path d="M10182 2258 c2 -13 8 -23 13 -23 6 0 11 10 13 23 2 15 -2 22 -13 22
-11 0 -15 -7 -13 -22z"/>
<path d="M10090 2246 c0 -9 30 -14 35 -6 4 6 -3 10 -14 10 -12 0 -21 -2 -21
-4z"/>
<path d="M10355 2280 c-3 -5 1 -10 10 -10 9 0 13 5 10 10 -3 6 -8 10 -10 10
-2 0 -7 -4 -10 -10z"/>
<path d="M10657 2283 c-10 -10 -8 -41 2 -48 17 -10 33 31 17 44 -7 6 -16 8
-19 4z"/>
<path d="M10448 2053 c7 -3 16 -2 19 1 4 3 -2 6 -13 5 -11 0 -14 -3 -6 -6z"/>
<path d="M10523 2044 c-7 -18 11 -39 26 -30 17 11 13 46 -4 46 -9 0 -18 -7
-22 -16z"/>
<path d="M10040 2020 c0 -5 4 -10 9 -10 6 0 13 5 16 10 3 6 -1 10 -9 10 -9 0
-16 -4 -16 -10z"/>
</g>
</svg>
